<svg width="140" height="140" viewBox="0 0 140 140" fill="none" xmlns="http://www.w3.org/2000/svg">
<circle cx="70" cy="70" r="70" fill="#3C047F"/>
<path d="M109.519 92.3566C104.741 101.291 97.1802 108.345 88.0329 112.404C78.8856 116.463 68.6735 117.294 59.0111 114.767C49.3488 112.24 40.7876 106.499 34.6812 98.4511C28.5747 90.4032 25.2715 80.5078 25.2938 70.3296C25.3161 60.1514 28.6626 50.2712 34.8042 42.2512C40.9458 34.2311 49.5321 28.5288 59.2054 26.046C68.8787 23.5631 79.0871 24.4413 88.2165 28.5417C97.3459 32.6421 104.875 39.7308 109.614 48.6869L102.486 52.6144C98.6029 45.2759 92.4333 39.4676 84.9528 36.1078C77.4724 32.7479 69.1078 32.0284 61.1816 34.0628C53.2555 36.0972 46.22 40.7696 41.1877 47.3411C36.1553 53.9126 33.4133 62.0082 33.395 70.3481C33.3767 78.6879 36.0833 86.796 41.0868 93.3904C46.0904 99.9848 53.1053 104.689 61.0224 106.76C68.9396 108.83 77.3073 108.149 84.8024 104.823C92.2975 101.497 98.4924 95.7173 102.408 88.3966L109.519 92.3566Z" fill="white"/>
<path d="M43.5212 79.1695L58.0662 53.9767L66.3227 58.7436L51.7777 83.9364L43.5212 79.1695ZM55.3737 86.0148L69.9187 60.8221L78.1752 65.589L63.6301 90.7817L55.3737 86.0148ZM67.2314 92.8601L81.7765 67.6674L90.033 72.4343L75.4879 97.627L67.2314 92.8601Z" stroke="white" stroke-width="2.2"/>
<circle cx="66.6508" cy="48.6336" r="3.91126" transform="rotate(30 66.6508 48.6336)" fill="white"/>
<circle cx="78.5068" cy="55.4796" r="3.91126" transform="rotate(30 78.5068 55.4796)" fill="white"/>
<circle cx="90.3628" cy="62.3241" r="3.91126" transform="rotate(30 90.3628 62.3241)" fill="white"/>
</svg>
