<svg width="22" height="21" viewBox="0 0 22 21" fill="none" xmlns="http://www.w3.org/2000/svg">
<path d="M20.9844 9.72318L16.7563 13.4132L18.0228 18.9069C18.0898 19.1941 18.0707 19.4947 17.9678 19.7711C17.865 20.0475 17.6829 20.2874 17.4444 20.4609C17.2059 20.6344 16.9215 20.7337 16.6269 20.7464C16.3323 20.7592 16.0404 20.6848 15.7878 20.5326L10.9963 17.6263L6.21501 20.5326C5.96242 20.6848 5.67056 20.7592 5.37592 20.7464C5.08128 20.7337 4.79694 20.6344 4.55844 20.4609C4.31994 20.2874 4.13787 20.0475 4.03499 19.7711C3.93211 19.4947 3.91299 19.1941 3.98001 18.9069L5.2447 13.4188L1.01563 9.72318C0.791954 9.53027 0.630211 9.27561 0.550686 8.99113C0.471161 8.70666 0.477396 8.40504 0.568607 8.1241C0.659819 7.84315 0.831947 7.59539 1.06341 7.41188C1.29487 7.22838 1.57535 7.11729 1.8697 7.09256L7.44407 6.60974L9.62001 1.41974C9.73364 1.14742 9.9253 0.914795 10.1709 0.751174C10.4164 0.587552 10.7049 0.500244 11 0.500244C11.2951 0.500244 11.5836 0.587552 11.8291 0.751174C12.0747 0.914795 12.2664 1.14742 12.38 1.41974L14.5625 6.60974L20.135 7.09256C20.4293 7.11729 20.7098 7.22838 20.9413 7.41188C21.1728 7.59539 21.3449 7.84315 21.4361 8.1241C21.5273 8.40504 21.5335 8.70666 21.454 8.99113C21.3745 9.27561 21.2127 9.53027 20.9891 9.72318H20.9844Z" fill="#3C0480"/>
</svg>
