<svg width="24" height="14" viewBox="0 0 24 14" fill="none" xmlns="http://www.w3.org/2000/svg">
<path d="M13.5 2.4999C13.5 2.30099 13.579 2.11022 13.7197 1.96957C13.8603 1.82892 14.0511 1.7499 14.25 1.7499H23.25C23.4489 1.7499 23.6397 1.82892 23.7803 1.96957C23.921 2.11022 24 2.30099 24 2.4999C24 2.69881 23.921 2.88958 23.7803 3.03023C23.6397 3.17088 23.4489 3.2499 23.25 3.2499H14.25C14.0511 3.2499 13.8603 3.17088 13.7197 3.03023C13.579 2.88958 13.5 2.69881 13.5 2.4999ZM23.25 6.2499H14.25C14.0511 6.2499 13.8603 6.32892 13.7197 6.46957C13.579 6.61022 13.5 6.80099 13.5 6.9999C13.5 7.19881 13.579 7.38958 13.7197 7.53023C13.8603 7.67088 14.0511 7.7499 14.25 7.7499H23.25C23.4489 7.7499 23.6397 7.67088 23.7803 7.53023C23.921 7.38958 24 7.19881 24 6.9999C24 6.80099 23.921 6.61022 23.7803 6.46957C23.6397 6.32892 23.4489 6.2499 23.25 6.2499ZM23.25 10.7499H16.5C16.3011 10.7499 16.1103 10.8289 15.9697 10.9696C15.829 11.1102 15.75 11.301 15.75 11.4999C15.75 11.6988 15.829 11.8896 15.9697 12.0302C16.1103 12.1709 16.3011 12.2499 16.5 12.2499H23.25C23.4489 12.2499 23.6397 12.1709 23.7803 12.0302C23.921 11.8896 24 11.6988 24 11.4999C24 11.301 23.921 11.1102 23.7803 10.9696C23.6397 10.8289 23.4489 10.7499 23.25 10.7499ZM10.2459 8.3124C10.9903 7.73908 11.5365 6.94716 11.808 6.0477C12.0795 5.14824 12.0627 4.18636 11.7599 3.29695C11.4571 2.40754 10.8834 1.63522 10.1195 1.08831C9.35554 0.541394 8.43956 0.247314 7.50001 0.247314C6.56047 0.247314 5.64449 0.541394 4.88053 1.08831C4.11658 1.63522 3.54297 2.40754 3.24015 3.29695C2.93733 4.18636 2.92049 5.14824 3.192 6.0477C3.4635 6.94716 4.00973 7.73908 4.75407 8.3124C2.82095 9.13084 1.29751 10.778 0.773449 12.8124C0.744826 12.9233 0.741963 13.0392 0.765082 13.1513C0.7882 13.2635 0.836686 13.3688 0.906822 13.4593C0.976959 13.5498 1.06688 13.6231 1.16971 13.6734C1.27253 13.7238 1.38552 13.75 1.50001 13.7499H13.5C13.6145 13.75 13.7275 13.7238 13.8303 13.6734C13.9331 13.6231 14.0231 13.5498 14.0932 13.4593C14.1633 13.3688 14.2118 13.2635 14.2349 13.1513C14.2581 13.0392 14.2552 12.9233 14.2266 12.8124C13.7025 10.7771 12.1791 9.1299 10.2459 8.3124Z" fill="#3C0480"/>
</svg>
