<svg width="18" height="22" viewBox="0 0 18 22" fill="none" xmlns="http://www.w3.org/2000/svg">
<path d="M12.75 3.80438V3C12.75 2.40326 12.5129 1.83097 12.091 1.40901C11.669 0.987053 11.0967 0.75 10.5 0.75H7.5C6.90326 0.75 6.33097 0.987053 5.90901 1.40901C5.48705 1.83097 5.25 2.40326 5.25 3V3.80438C4.00133 3.98638 2.85973 4.61133 2.0336 5.56518C1.20746 6.51902 0.751879 7.73813 0.75 9V20.25C0.75 20.6478 0.908035 21.0294 1.18934 21.3107C1.47064 21.592 1.85218 21.75 2.25 21.75H15.75C16.1478 21.75 16.5294 21.592 16.8107 21.3107C17.092 21.0294 17.25 20.6478 17.25 20.25V9C17.2481 7.73813 16.7925 6.51902 15.9664 5.56518C15.1403 4.61133 13.9987 3.98638 12.75 3.80438ZM6.75 3C6.75 2.80109 6.82902 2.61032 6.96967 2.46967C7.11032 2.32902 7.30109 2.25 7.5 2.25H10.5C10.6989 2.25 10.8897 2.32902 11.0303 2.46967C11.171 2.61032 11.25 2.80109 11.25 3V3.75H6.75V3ZM7.5 6.75H10.5C10.6989 6.75 10.8897 6.82902 11.0303 6.96967C11.171 7.11032 11.25 7.30109 11.25 7.5C11.25 7.69891 11.171 7.88968 11.0303 8.03033C10.8897 8.17098 10.6989 8.25 10.5 8.25H7.5C7.30109 8.25 7.11032 8.17098 6.96967 8.03033C6.82902 7.88968 6.75 7.69891 6.75 7.5C6.75 7.30109 6.82902 7.11032 6.96967 6.96967C7.11032 6.82902 7.30109 6.75 7.5 6.75ZM13.5 20.25H4.5V16.5H9.75V17.25C9.75 17.4489 9.82902 17.6397 9.96967 17.7803C10.1103 17.921 10.3011 18 10.5 18C10.6989 18 10.8897 17.921 11.0303 17.7803C11.171 17.6397 11.25 17.4489 11.25 17.25V16.5H13.5V20.25ZM13.5 15H4.5V14.25C4.5 13.8522 4.65804 13.4706 4.93934 13.1893C5.22064 12.908 5.60218 12.75 6 12.75H12C12.3978 12.75 12.7794 12.908 13.0607 13.1893C13.342 13.4706 13.5 13.8522 13.5 14.25V15Z" fill="#3C0480"/>
</svg>
